<?xml version="1.0" standalone="no"?>
<!DOCTYPE svg PUBLIC "-//W3C//DTD SVG 20010904//EN"
 "http://www.w3.org/TR/2001/REC-SVG-20010904/DTD/svg10.dtd">
<svg version="1.0" xmlns="http://www.w3.org/2000/svg"
 width="980.000000pt" height="932.000000pt" viewBox="0 0 980.000000 932.000000"
 preserveAspectRatio="xMidYMid meet">

<g transform="translate(0.000000,932.000000) scale(0.100000,-0.100000)"
fill="#000000" stroke="none">
<path d="M3690 9299 c-997 -90 -1895 -477 -2577 -1111 -333 -309 -582 -643
-778 -1043 -212 -432 -316 -844 -332 -1315 -35 -1038 447 -2038 1320 -2741 54
-43 122 -96 152 -116 l54 -38 1 -907 c0 -500 2 -908 4 -908 3 0 658 399 1613
982 l172 105 88 -13 c414 -63 892 -66 1308 -8 1140 157 2140 725 2780 1579
138 184 220 318 330 540 160 324 251 613 305 970 31 200 38 565 16 774 -97
912 -560 1725 -1336 2346 -113 90 -398 282 -525 352 -520 289 -1061 462 -1685
539 -160 19 -745 28 -910 13z m725 -509 c1318 -111 2446 -823 2955 -1865 126
-257 195 -469 247 -755 25 -135 27 -166 27 -435 1 -318 -10 -415 -74 -665 -98
-385 -288 -761 -555 -1095 -98 -124 -348 -375 -475 -476 -552 -444 -1211 -718
-1965 -816 -113 -14 -209 -18 -490 -18 -368 0 -493 11 -769 64 l-98 18 -594
-358 c-327 -198 -597 -359 -600 -359 -3 0 -3 267 1 593 l6 592 -133 87 c-192
125 -331 239 -519 427 -186 186 -279 298 -405 487 -94 143 -243 435 -299 588
-225 616 -217 1293 22 1906 242 618 718 1163 1348 1543 501 302 1118 494 1735
540 107 8 525 6 635 -3z"/>
<path d="M2228 6486 c-81 -22 -143 -82 -173 -167 -42 -118 19 -257 137 -310
l53 -24 1840 0 1840 0 47 23 c91 45 148 134 148 232 0 72 -21 121 -75 177 -88
90 86 83 -1964 82 -1419 0 -1816 -3 -1853 -13z"/>
<path d="M2740 4951 c-45 -14 -84 -39 -116 -73 -116 -122 -89 -311 55 -396
l46 -27 1343 -3 c1290 -2 1345 -2 1385 16 62 28 102 66 131 124 68 136 0 304
-143 353 -39 13 -205 15 -1360 14 -724 0 -1327 -4 -1341 -8z"/>
<path d="M8745 6051 c0 -141 -6 -300 -14 -372 l-14 -127 86 -118 c245 -341
395 -711 453 -1119 20 -143 23 -466 5 -595 -41 -298 -110 -525 -236 -785 -123
-253 -275 -464 -490 -681 -155 -156 -291 -268 -456 -376 l-109 -71 0 -484 c0
-265 -3 -483 -6 -483 -3 0 -167 114 -365 253 -198 138 -396 277 -442 308 l-82
57 -90 -18 c-460 -93 -977 -71 -1433 60 -310 90 -585 216 -843 387 l-96 64
-219 -11 c-138 -7 -273 -8 -364 -2 -80 4 -147 6 -150 4 -8 -7 154 -154 295
-268 745 -603 1764 -880 2717 -738 54 8 108 14 121 14 13 0 324 -195 747 -470
l725 -470 5 779 5 779 75 57 c1118 859 1521 2265 1009 3517 -103 250 -271 535
-446 753 -91 113 -270 304 -341 363 l-47 40 0 -247z"/>
</g>
</svg>
