<svg width="22" height="22" viewBox="0 0 22 22" fill="none" xmlns="http://www.w3.org/2000/svg">
<path d="M19.6422 15.8255V6.17451C20.1783 6.03712 20.6686 5.76031 21.0631 5.37219C21.4577 4.98406 21.7425 4.49844 21.8886 3.96464C22.0348 3.43084 22.0371 2.86787 21.8953 2.33288C21.7536 1.7979 21.4727 1.30996 21.0814 0.918611C20.69 0.527262 20.2021 0.24644 19.6671 0.104659C19.1321 -0.0371222 18.5692 -0.0348119 18.0354 0.111355C17.5016 0.257522 17.0159 0.542339 16.6278 0.936887C16.2397 1.33144 15.9629 1.82166 15.8255 2.35779H6.17451C6.03712 1.82166 5.76031 1.33144 5.37219 0.936887C4.98406 0.542339 4.49844 0.257522 3.96464 0.111355C3.43084 -0.0348119 2.86787 -0.0371222 2.33288 0.104659C1.7979 0.24644 1.30996 0.527262 0.918611 0.918611C0.527262 1.30996 0.24644 1.7979 0.104659 2.33288C-0.0371222 2.86787 -0.0348119 3.43084 0.111355 3.96464C0.257522 4.49844 0.542339 4.98406 0.936887 5.37219C1.33144 5.76031 1.82166 6.03712 2.35779 6.17451V15.8255C1.82166 15.9629 1.33144 16.2397 0.936887 16.6278C0.542339 17.0159 0.257522 17.5016 0.111355 18.0354C-0.0348119 18.5692 -0.0371222 19.1321 0.104659 19.6671C0.24644 20.2021 0.527262 20.69 0.918611 21.0814C1.30996 21.4727 1.7979 21.7536 2.33288 21.8953C2.86787 22.0371 3.43084 22.0348 3.96464 21.8886C4.49844 21.7425 4.98406 21.4577 5.37219 21.0631C5.76031 20.6686 6.03712 20.1783 6.17451 19.6422H15.8255C15.9629 20.1783 16.2397 20.6686 16.6278 21.0631C17.0159 21.4577 17.5016 21.7425 18.0354 21.8886C18.5692 22.0348 19.1321 22.0371 19.6671 21.8953C20.2021 21.7536 20.69 21.4727 21.0814 21.0814C21.4727 20.69 21.7536 20.2021 21.8953 19.6671C22.0371 19.1321 22.0348 18.5692 21.8886 18.0354C21.7425 17.5016 21.4577 17.0159 21.0631 16.6278C20.6686 16.2397 20.1783 15.9629 19.6422 15.8255ZM18.8566 1.57214C19.1673 1.57214 19.4711 1.66429 19.7295 1.83695C19.9879 2.00961 20.1893 2.25501 20.3083 2.54213C20.4272 2.82925 20.4583 3.14519 20.3977 3.44999C20.337 3.7548 20.1874 4.03478 19.9676 4.25453C19.7479 4.47428 19.4679 4.62394 19.1631 4.68457C18.8583 4.74519 18.5424 4.71408 18.2552 4.59515C17.9681 4.47622 17.7227 4.27482 17.5501 4.01642C17.3774 3.75802 17.2852 3.45422 17.2852 3.14345C17.2857 2.72684 17.4513 2.32741 17.7459 2.03282C18.0405 1.73823 18.4399 1.57255 18.8566 1.57214ZM1.57214 3.14345C1.57214 2.83267 1.66429 2.52887 1.83695 2.27047C2.00961 2.01207 2.25501 1.81067 2.54213 1.69175C2.82925 1.57282 3.14519 1.5417 3.44999 1.60233C3.7548 1.66296 4.03478 1.81261 4.25453 2.03236C4.47428 2.25211 4.62394 2.5321 4.68457 2.8369C4.74519 3.1417 4.71408 3.45764 4.59515 3.74476C4.47622 4.03188 4.27482 4.27729 4.01642 4.44994C3.75802 4.6226 3.45422 4.71476 3.14345 4.71476C2.72684 4.71434 2.32741 4.54866 2.03282 4.25407C1.73823 3.95948 1.57255 3.56006 1.57214 3.14345ZM3.14345 20.4279C2.83267 20.4279 2.52887 20.3357 2.27047 20.163C2.01207 19.9904 1.81067 19.745 1.69175 19.4579C1.57282 19.1707 1.5417 18.8548 1.60233 18.55C1.66296 18.2452 1.81261 17.9652 2.03236 17.7455C2.25211 17.5257 2.5321 17.3761 2.8369 17.3154C3.1417 17.2548 3.45764 17.2859 3.74476 17.4049C4.03188 17.5238 4.27729 17.7252 4.44994 17.9836C4.6226 18.242 4.71476 18.5458 4.71476 18.8566C4.71434 19.2732 4.54866 19.6726 4.25407 19.9672C3.95948 20.2618 3.56006 20.4274 3.14345 20.4279ZM15.8255 18.0709H6.17451C6.03377 17.5307 5.7515 17.0379 5.3568 16.6432C4.9621 16.2485 4.46926 15.9662 3.9291 15.8255V6.17451C4.46922 6.0337 4.96203 5.7514 5.35671 5.35671C5.7514 4.96203 6.0337 4.46922 6.17451 3.9291H15.8255C15.9662 4.46926 16.2485 4.9621 16.6432 5.3568C17.0379 5.7515 17.5307 6.03377 18.0709 6.17451V15.8255C17.5307 15.9662 17.0378 16.2484 16.6431 16.6431C16.2484 17.0378 15.9662 17.5307 15.8255 18.0709ZM18.8566 20.4279C18.5458 20.4279 18.242 20.3357 17.9836 20.163C17.7252 19.9904 17.5238 19.745 17.4049 19.4579C17.2859 19.1707 17.2548 18.8548 17.3154 18.55C17.3761 18.2452 17.5257 17.9652 17.7455 17.7455C17.9652 17.5257 18.2452 17.3761 18.55 17.3154C18.8548 17.2548 19.1707 17.2859 19.4579 17.4049C19.745 17.5238 19.9904 17.7252 20.163 17.9836C20.3357 18.242 20.4279 18.5458 20.4279 18.8566C20.4272 19.2731 20.2615 19.6724 19.9669 19.9669C19.6724 20.2615 19.2731 20.4272 18.8566 20.4279Z" fill="#919191"/>
</svg>
