<?xml version="1.0" encoding="utf-8"?>
<!-- Svg Vector Icons : http://www.onlinewebfonts.com/icon -->
<!DOCTYPE svg PUBLIC "-//W3C//DTD SVG 1.1//EN" "http://www.w3.org/Graphics/SVG/1.1/DTD/svg11.dtd">
<svg version="1.1" xmlns="http://www.w3.org/2000/svg" xmlns:xlink="http://www.w3.org/1999/xlink" x="0px" y="0px" viewBox="0 0 1000 1000" enable-background="new 0 0 1000 1000" xml:space="preserve">
<metadata> Svg Vector Icons : http://www.onlinewebfonts.com/icon </metadata>
<g><path d="M756.7,287.9c0-136-114.9-246.7-256.2-246.7c-141.3,0-256.2,110.7-256.2,246.7c0,66.3,27.4,126.4,71.8,170.8l55.1,41.8c38,21.5,82.1,34.1,129.3,34.1c43.9,0,85.4-10.7,121.5-29.6c0.9,0.3,1.7,0.6,2.6,0.9l4.1-4.1l50.8-35.9c-0.4-0.2-0.9-0.4-1.3-0.6C726.5,420.3,756.7,357.5,756.7,287.9L756.7,287.9z M500.5,475.2c-107.3,0-194.6-84-194.6-187.3c0-103.3,87.3-187.3,194.6-187.3c107.3,0,194.6,84,194.6,187.3C695.1,391.2,607.8,475.2,500.5,475.2L500.5,475.2z"/><path d="M728,551.9c0,0-33.4-22.1-53.1-0.8c-17.4,18.8-2.1,44.3-2.1,44.3C789.6,662.9,845.1,783,845.1,924.6c0,19,25.1,34.2,42.8,34.2c17.7,0,28.5-22.7,28.5-41.8C916.4,756.9,855.4,633.8,728,551.9L728,551.9z"/><path d="M122.5,517.3C46.4,561,10,629.3,10,714.6c0,10.2,19.6,22.8,30.2,22.8c10.5,0,19.1-8.3,19.1-18.4c0-75.5,32.8-134.6,102.5-170.6c0,0,5.3-11.7-5.1-21.7C145,515.4,122.5,517.3,122.5,517.3L122.5,517.3z"/><path d="M223,162.4c-90.2-2.2-165.4,66.7-167.7,153.5c-1.1,42.3,15.4,81.1,43,110.1l34.5,27.5c23.9,14.3,51.8,23.1,82,23.8c15.7,0.4,31-1.4,45.6-5.1c-8.1-11-17.4-30.2-23.1-42.7c-7.7,1.3-15.6,1.8-23.7,1.6c-67.9-1.7-111-48.2-109.3-113.6c1.7-65.4,45.5-110.9,113.5-109.2c20.4,0.5,39.5,5.8,56.3,14.7c9.6-9.9,24.5-26.1,36-34C285,172.9,255.2,163.2,223,162.4L223,162.4z"/><path d="M878.7,526.1c75.2,43.5,111.2,111.5,111.3,196.6c0,10.1-17.2,19.6-27.6,19.6c-10.4,0-18.9-8.2-18.9-18.3c-0.1-75.3-32.6-134.2-101.4-170c0,0-5.3-11.6,5-21.6C858.7,521.1,878.7,526.1,878.7,526.1L878.7,526.1z"/><path d="M303.1,562.8C175.7,644.7,114.7,756.9,114.7,917c0,19,10.8,41.8,28.5,41.8c17.7,0,42.8-15.1,42.8-34.2c0-141.6,55.5-250.8,172.3-318.3c0,0,15.3-25.5-2.1-44.3C336.5,540.8,303.1,562.8,303.1,562.8L303.1,562.8z"/><path d="M773.5,158.4c-32.2,0.8-62,10.5-86.9,26.7c11.5,7.9,26.4,24.1,36,34c16.7-8.9,35.9-14.2,56.3-14.7c67.9-1.7,111.8,43.8,113.5,109.2C894,379,851,425.5,783.1,427.2c-8.1,0.2-16-0.4-23.7-1.6c-5.7,12.5-15,31.6-23.1,42.7c14.5,3.7,29.8,5.5,45.6,5.1c30.1-0.7,58.1-9.4,82-23.8l34.5-27.5c27.6-29,44.1-67.8,42.9-110.1C938.9,225,863.7,156.2,773.5,158.4L773.5,158.4z"/></g>
</svg>