<svg width="20" height="22" viewBox="0 0 20 22" fill="none" xmlns="http://www.w3.org/2000/svg">
<path d="M9.02903 1.63605C9.32608 1.47109 9.66025 1.38452 10 1.38452C10.3398 1.38452 10.674 1.47109 10.971 1.63605L18.4861 5.81006C18.6419 5.89671 18.7717 6.02342 18.8621 6.17709C18.9524 6.33076 19.0001 6.50579 19.0001 6.68407V14.9191C19 15.2757 18.9045 15.6259 18.7236 15.9332C18.5427 16.2406 18.2829 16.494 17.9711 16.6671L10.971 20.5571C10.674 20.7221 10.3398 20.8086 10 20.8086C9.66025 20.8086 9.32608 20.7221 9.02903 20.5571L2.029 16.6671C1.71736 16.494 1.45763 16.2408 1.27672 15.9337C1.0958 15.6265 1.00026 15.2766 1 14.9201V6.68407C0.999993 6.50579 1.04764 6.33076 1.13802 6.17709C1.22839 6.02342 1.3582 5.89671 1.514 5.81006L9.03003 1.63605H9.02903Z" stroke="#919191" stroke-width="1.5" stroke-linecap="round" stroke-linejoin="round"/>
<path d="M10 11.096V21.096M1 6.09595L10 11.096L1 6.09595ZM10 11.096L19.0001 6.09595L10 11.096Z" stroke="#919191" stroke-width="1.5" stroke-linejoin="round"/>
<path d="M5.5 8.59597L14.5 3.59595" stroke="#919191" stroke-width="1.5" stroke-linecap="round" stroke-linejoin="round"/>
<path d="M4 11.4241L7.00001 13.0961" stroke="#919191" stroke-width="1.5" stroke-linecap="round" stroke-linejoin="round"/>
</svg>
