<svg width="22" height="20" viewBox="0 0 22 20" fill="none" xmlns="http://www.w3.org/2000/svg">
<path d="M3.92904 18.5171C2.99906 17.5896 2.26153 16.4874 1.75886 15.274C1.25619 14.0605 0.998277 12.7597 0.999947 11.4462C0.999947 5.92348 5.47723 1.4462 11 1.4462C16.5227 1.4462 21 5.92348 21 11.4462C21.0017 12.7597 20.7437 14.0605 20.2411 15.274C19.7384 16.4874 19.0009 17.5896 18.0709 18.5171" stroke="none" stroke-width="1.8" stroke-linecap="round" stroke-linejoin="round"/>
<path d="M6.49994 15.9462C5.90815 15.3559 5.43885 14.6545 5.11902 13.8822C4.7992 13.1099 4.63515 12.2821 4.6363 11.4462C4.6363 7.93165 7.48539 5.08255 10.9999 5.08255" stroke="none" stroke-width="1.8" stroke-linecap="round"/>
<path d="M11 11.4462V7.80984" stroke="none" stroke-width="1.8" stroke-linecap="round" stroke-linejoin="round"/>
</svg>
