<svg width="16" height="20" viewBox="0 0 16 20" fill="none" xmlns="http://www.w3.org/2000/svg">
<path d="M12.0723 2.3501H14.2998C14.5385 2.3501 14.7674 2.44492 14.9362 2.6137C15.105 2.78248 15.1998 3.0114 15.1998 3.2501V18.1001C15.1998 18.3388 15.105 18.5677 14.9362 18.7365C14.7674 18.9053 14.5385 19.0001 14.2998 19.0001H1.69981C1.46111 19.0001 1.23219 18.9053 1.06341 18.7365C0.894626 18.5677 0.799805 18.3388 0.799805 18.1001V3.2501C0.799805 3.0114 0.894626 2.78248 1.06341 2.6137C1.23219 2.44492 1.46111 2.3501 1.69981 2.3501H4.84981V3.7001H11.1498V2.3501H12.0723Z" stroke="#919191" stroke-width="1.5" stroke-linejoin="round"/>
<path d="M4.84961 1H11.1496V3.7H4.84961V1Z" stroke="#919191" stroke-width="1.5" stroke-linecap="round" stroke-linejoin="round"/>
<path d="M9.35 7.75L5.75 11.3505H10.2518L6.65 14.9505" stroke="#919191" stroke-width="1.5" stroke-linecap="round" stroke-linejoin="round"/>
</svg>
