<svg width="16" height="14" viewBox="0 0 16 14" fill="none" xmlns="http://www.w3.org/2000/svg">
<path d="M5.2028 0.000358475C4.1015 0.000358475 3.1968 1.01492 3.1968 2.24995C3.1968 2.97054 3.50609 3.61459 3.98162 4.0274L2.37602 7.74792C2.25402 7.72157 2.13008 7.70818 2.00583 7.70795C0.904695 7.70813 0 8.72269 0 9.95772C0 11.1928 0.904695 12.2073 2.00599 12.2073C2.82597 12.2073 3.53087 11.6425 3.83824 10.8445L12.0344 12.2265C12.2313 13.2355 13.0383 14 13.994 14C15.0579 14 15.9303 13.0505 15.9888 11.8728C15.9961 11.8325 15.9999 11.7914 16 11.7502C16 11.7081 15.9962 11.666 15.9887 11.6248C15.9287 10.4485 15.0569 9.50063 13.994 9.50063C13.9726 9.50063 13.9518 9.50332 13.9307 9.50404L12.8339 5.7543C13.3574 5.37303 13.7144 4.72433 13.751 3.98563C13.7584 3.94528 13.7621 3.90421 13.7622 3.86303C13.7622 3.82088 13.7584 3.77884 13.7509 3.73755C13.6909 2.56131 12.8192 1.61343 11.7562 1.61343C10.9471 1.61343 10.2454 2.16194 9.92927 2.94258L7.19888 2.1329C7.19836 2.13009 7.19783 2.12728 7.19728 2.12448C7.1375 0.948056 6.26573 0 5.2028 0V0.000358475ZM5.2028 1.25511C5.69942 1.25511 6.08991 1.69302 6.08991 2.24995C6.08991 2.80688 5.69942 3.24479 5.2028 3.24479C4.70617 3.24479 4.31568 2.80688 4.31568 2.24995C4.31568 1.69302 4.70617 1.25511 5.2028 1.25511ZM11.7562 2.86837C12.2529 2.86837 12.6434 3.30627 12.6434 3.86321C12.6434 4.42014 12.2529 4.85805 11.7562 4.85805C11.2596 4.85805 10.8691 4.42014 10.8691 3.86321C10.8691 3.30627 11.2596 2.86837 11.7562 2.86837ZM6.93914 3.35378L9.77454 4.19446C9.9192 5.27391 10.7555 6.1128 11.7562 6.1128L11.7615 6.11244L12.8676 9.89319C12.5241 10.1575 12.2616 10.5339 12.1156 10.9714L3.97714 9.5994C3.90571 9.11051 3.69303 8.66147 3.37183 8.32134L5.02489 4.48933C5.08372 4.49524 5.1427 4.49955 5.2028 4.49955C5.94637 4.49955 6.595 4.03493 6.93914 3.3536V3.35378ZM2.00599 8.96288C2.50262 8.96288 2.89311 9.40097 2.89311 9.9579C2.89311 10.5148 2.50262 10.9527 2.00599 10.9527C1.50937 10.9527 1.11888 10.5148 1.11888 9.9579C1.11888 9.40097 1.50937 8.96306 2.00599 8.96306V8.96288ZM13.994 10.7554C14.4906 10.7554 14.8811 11.1935 14.8811 11.7504C14.8811 12.3073 14.4906 12.7452 13.994 12.7452C13.4974 12.7452 13.1069 12.3073 13.1069 11.7504C13.1069 11.1935 13.4974 10.7556 13.994 10.7556V10.7554Z" fill="#EB612C"/>
</svg>
