<svg width="14" height="16" viewBox="0 0 14 16" fill="none" xmlns="http://www.w3.org/2000/svg">
<path d="M6.23966 0.0715334C5.94517 0.071379 5.65788 0.162567 5.41738 0.33253C5.17688 0.502492 4.99502 0.742863 4.89685 1.02051H3.39272C3.01519 1.02051 2.65313 1.17049 2.38617 1.43744C2.11922 1.70439 1.96925 2.06646 1.96925 2.44399V6.00836C2.27103 5.90207 2.58893 5.82805 2.91823 5.79104V2.44399C2.91823 2.31814 2.96822 2.19745 3.05721 2.10847C3.14619 2.01949 3.26688 1.96949 3.39272 1.96949H4.89685C4.99502 2.24715 5.17688 2.48752 5.41738 2.65748C5.65788 2.82744 5.94517 2.91863 6.23966 2.91848H9.0866C9.3811 2.91863 9.66839 2.82744 9.90889 2.65748C10.1494 2.48752 10.3312 2.24715 10.4294 1.96949H11.9335C12.0594 1.96949 12.1801 2.01949 12.2691 2.10847C12.358 2.19745 12.408 2.31814 12.408 2.44399V13.8318C12.408 13.9576 12.358 14.0783 12.2691 14.1673C12.1801 14.2563 12.0594 14.3062 11.9335 14.3062H9.48043C9.58861 14.6128 9.58861 14.9487 9.48043 15.2552H11.9335C12.3111 15.2552 12.6731 15.1053 12.9401 14.8383C13.207 14.5713 13.357 14.2093 13.357 13.8318V2.44399C13.357 2.06646 13.207 1.70439 12.9401 1.43744C12.6731 1.17049 12.3111 1.02051 11.9335 1.02051H10.4294C10.3312 0.742863 10.1494 0.502492 9.90889 0.33253C9.66839 0.162567 9.3811 0.071379 9.0866 0.0715334H6.23966ZM9.0866 1.02051C9.21245 1.02051 9.33314 1.0705 9.42212 1.15949C9.5111 1.24847 9.56109 1.36916 9.56109 1.495C9.56109 1.62085 9.5111 1.74154 9.42212 1.83052C9.33314 1.9195 9.21245 1.96949 9.0866 1.96949H6.23966C6.11382 1.96949 5.99313 1.9195 5.90415 1.83052C5.81516 1.74154 5.76517 1.62085 5.76517 1.495C5.76517 1.36916 5.81516 1.24847 5.90415 1.15949C5.99313 1.0705 6.11382 1.02051 6.23966 1.02051H9.0866ZM6.05271 12.0249C6.55559 11.3524 6.78508 10.5144 6.69498 9.67948C6.60489 8.8446 6.20191 8.07483 5.56714 7.52509C4.93237 6.97535 4.11293 6.68645 3.27374 6.71653C2.43455 6.74661 1.6379 7.09345 1.04412 7.68722C0.450337 8.281 0.103505 9.07765 0.0734229 9.91685C0.0433406 10.756 0.33224 11.5755 0.88198 12.2102C1.43172 12.845 2.20149 13.248 3.03637 13.3381C3.87126 13.4282 4.70928 13.1987 5.38178 12.6958L7.80168 15.1157C7.89065 15.2048 8.01137 15.2549 8.13729 15.255C8.2632 15.2551 8.38399 15.2052 8.47309 15.1162C8.56218 15.0272 8.61229 14.9065 8.61238 14.7806C8.61247 14.6547 8.56253 14.5339 8.47356 14.4448L6.05271 12.0249ZM3.39272 12.4083C2.76351 12.4083 2.16006 12.1583 1.71514 11.7134C1.27022 11.2685 1.02027 10.665 1.02027 10.0358C1.02027 9.40662 1.27022 8.80317 1.71514 8.35825C2.16006 7.91333 2.76351 7.66338 3.39272 7.66338C4.02193 7.66338 4.62538 7.91333 5.0703 8.35825C5.51522 8.80317 5.76517 9.40662 5.76517 10.0358C5.76517 10.665 5.51522 11.2685 5.0703 11.7134C4.62538 12.1583 4.02193 12.4083 3.39272 12.4083Z" fill="#2E314E" stroke="#2E314E" stroke-width="0.2"/>
</svg>
