<?xml version="1.0" encoding="utf-8"?>
<!-- Svg Vector Icons : http://www.onlinewebfonts.com/icon -->
<!DOCTYPE svg PUBLIC "-//W3C//DTD SVG 1.1//EN" "http://www.w3.org/Graphics/SVG/1.1/DTD/svg11.dtd">
<svg version="1.1" xmlns="http://www.w3.org/2000/svg" xmlns:xlink="http://www.w3.org/1999/xlink" x="0px" y="0px" viewBox="0 0 1000 1000" enable-background="new 0 0 1000 1000" xml:space="preserve">
<metadata> Svg Vector Icons : http://www.onlinewebfonts.com/icon </metadata>
<g><g transform="translate(0.000000,289.000000) scale(0.100000,-0.100000)"><path d="M5265.5,669.9c-305.5-55.6-553.5-222.2-805.5-541.6l-65.5-85.3L4126.6,37c-333.3-7.9-434.5-35.7-742-200.4l-236.1-129h-400.8c-390.9,0-402.8,2-414.7,41.7c-21.8,65.5-146.8,194.4-236.1,242.1C2017.6,35,1999.7,35,1231.9,35C466,35,446.2,35,368.8-8.6c-103.2-55.6-198.4-154.8-236.1-248c-53.6-129-39.7-990.1,29.8-1742c47.6-517.9,174.6-1418.6,220.2-1565.4c27.8-87.3,140.9-212.3,242.1-265.8c79.4-41.7,101.2-43.7,736.1-43.7h656.7l97.2,49.6c99.2,51.6,218.3,194.4,238.1,285.7c4,21.8,11.9,65.5,19.8,97.2l9.9,53.6h178.6h176.6L2841-3580c144.8-273.8,468.2-833.3,537.7-934.5c182.5-265.9,432.5-402.8,742-402.8c166.7,0,303.6,33.7,420.6,105.2l65.5,39.7l103.2-43.7c259.9-113.1,632.9-39.7,863.1,166.7c73.4,67.5,75.4,67.5,180.5,45.6c206.4-39.7,438.5,35.7,623,204.4c91.3,83.3,109.1,93.3,142.9,73.4c21.8-11.9,115.1-23.8,208.3-23.8c152.8,0,182.5,5.9,301.6,65.5c281.7,138.9,400.8,388.9,329.4,698.4c-4,23.8,21.8,31.7,136.9,35.7l144.8,5.9l59.5-97.2c67.5-109.1,168.7-188.5,287.7-222.2c53.6-15.9,271.8-19.8,694.4-15.9c587.3,5.9,619,7.9,696.4,49.6c101.2,53.6,214.3,178.6,242.1,265.8c53.6,168.7,178.6,1083.3,234.1,1704.3c43.7,490.1,61.5,1476.1,27.8,1575.3c-31.7,97.2-142.9,220.2-246,275.8C9557,35,9539.2,35,8771.3,35c-878.9,0-839.3,5.9-1002-150.8l-79.4-77.4l-555.5,371c-605.1,402.8-728.2,470.2-922.6,500C6035.3,707.6,5440.1,701.7,5265.5,669.9z M6221.8,352.5c97.2-25.8,238.1-111.1,759.9-456.3l638.9-426.6v-1349.2v-1351.2l-202.4,6l-204.4,6l-664.7,1180.5c-365.1,650.8-684.5,1208.3-708.3,1242c-23.8,31.8-89.3,85.3-148.8,117.1c-85.3,47.6-129,57.5-234.1,57.5c-178.6,0-238.1-35.7-646.8-386.9c-190.5-164.7-379-317.5-416.7-339.3c-97.2-57.5-216.3-75.4-335.3-53.6c-107.1,19.8-291.7,131-283.7,170.6c13.9,57.5,1119,1380.9,1200.4,1436.5c109.1,75.4,240.1,134.9,349.2,154.8C5479.8,392.1,6092.8,386.2,6221.8,352.5z M1964-302.3c31.7-15.9,67.5-55.5,79.4-91.3c15.9-43.6,21.8-509.9,21.8-1539.6c0-1583.3,2-1559.5-97.2-1613c-23.8-11.9-252-19.8-597.2-19.8c-632.9,0-658.7,4-692.4,134.9c-43.7,166.7-144.8,890.9-190.5,1353.1c-61.5,644.8-95.2,1599.2-61.5,1702.3c31.7,97.2,69.4,101.2,801.6,103.2C1789.4-272.5,1918.4-278.5,1964-302.3z M4108.8-286.4c0-9.9-138.9-184.5-307.5-392.8c-363.1-442.4-392.8-511.9-309.5-694.4c103.2-226.2,486.1-396.8,785.7-347.2c196.4,31.7,331.3,115.1,724.2,454.3c202.4,174.6,386.9,319.4,408.7,325.4c23.8,4,73.4-2,109.1-13.9c63.5-19.8,97.2-75.4,482.1-755.9C6565-2712.9,7047.2-3641.5,7059.1-3752.6c9.9-73.4,2-93.3-51.6-156.7c-79.4-89.3-212.3-142.9-321.4-127c-45.7,6-93.3,21.8-107.1,37.7c-13.9,13.9-152.8,257.9-307.5,541.7c-154.7,283.7-299.6,531.7-321.4,551.6c-93.3,79.4-254,7.9-254-113.1c0-41.7,93.3-226.2,275.8-557.5l275.8-496l-61.5-65.5c-170.6-178.6-400.8-212.3-525.8-77.4c-21.8,23.8-134.9,210.3-250,414.7c-281.7,505.9-269.8,488.1-333.3,513.9c-99.2,41.7-214.3-41.7-214.3-154.8c0-27.8,343.2-658.7,472.2-865c55.6-91.3,45.6-111.1-103.2-188.5c-130.9-67.5-359.1-75.4-426.6-15.9c-23.8,21.8-140.9,210.3-261.9,420.6c-121,212.3-232.1,392.8-246,404.8c-55.6,45.6-140.9,43.7-196.4-4c-91.3-77.4-77.4-134.9,125-490.1c202.4-351.2,202.4-355.1,65.5-400.8c-174.6-57.5-388.9-13.9-533.7,109.1c-93.2,79.4-478.1,722.2-718.2,1196.4c-43.7,89.3-99.2,172.6-119,184.5c-21.8,9.9-150.8,19.8-287.7,19.8h-250v1230.1v1230.1h422.6h420.6l148.8,81.3c275.8,148.8,428.6,216.3,517.8,234.1C4005.6-272.5,4108.8-268.5,4108.8-286.4z M9505.4-302.3c33.7-17.9,65.5-53.6,71.4-83.3c17.9-69.4-4-1039.7-31.7-1365c-45.6-561.5-166.7-1476.2-220.2-1680.5c-33.7-130.9-57.5-134.9-700.4-134.9h-565.5l-55.5,47.6l-55.6,47.6L7942-1955c-4,1111.1,2,1527.7,17.9,1569.4c45.6,109.1,65.5,111.1,807.5,113.1C9338.8-272.5,9457.8-276.5,9505.4-302.3z"/><path d="M1114.8-2645.5c-53.6-67.4-53.6-127,0-194.4c31.7-39.7,57.5-51.6,117.1-51.6c123,0,192.5,115.1,136.9,224.2c-31.7,59.5-55.6,73.4-140.9,73.4C1172.3-2593.9,1144.6-2605.8,1114.8-2645.5z"/><path d="M8652.3-2637.5c-89.3-97.2-15.9-254,119-254c59.5,0,85.3,11.9,117.1,51.6c23.8,29.8,41.7,73.4,41.7,97.2s-17.9,67.5-41.7,97.2C8834.8-2578,8713.8-2572.1,8652.3-2637.5z"/></g></g>
</svg>