<svg width="20" height="20" viewBox="0 0 20 20" fill="none" xmlns="http://www.w3.org/2000/svg">
<path d="M0 3.57143C0 2.62423 0.376274 1.71582 1.04605 1.04605C1.71582 0.376274 2.62423 0 3.57143 0H10.7143C11.6615 0 12.5699 0.376274 13.2397 1.04605C13.9094 1.71582 14.2857 2.62423 14.2857 3.57143C14.2857 3.76087 14.2105 3.94255 14.0765 4.0765C13.9426 4.21046 13.7609 4.28571 13.5714 4.28571C13.382 4.28571 13.2003 4.21046 13.0664 4.0765C12.9324 3.94255 12.8571 3.76087 12.8571 3.57143C12.8571 3.00311 12.6314 2.45806 12.2295 2.0562C11.8277 1.65434 11.2826 1.42857 10.7143 1.42857H3.57143C3.00311 1.42857 2.45806 1.65434 2.0562 2.0562C1.65434 2.45806 1.42857 3.00311 1.42857 3.57143V10.7143C1.42857 11.2826 1.65434 11.8277 2.0562 12.2295C2.45806 12.6314 3.00311 12.8571 3.57143 12.8571H10.02C10.1083 12.0723 10.4825 11.3474 11.0713 10.8208C11.66 10.2942 12.422 10.0029 13.2118 10.0023C14.0016 10.0017 14.764 10.292 15.3535 10.8177C15.943 11.3434 16.3183 12.0678 16.4077 12.8525C16.4972 13.6373 16.2946 14.4275 15.8385 15.0724C15.3825 15.7173 14.705 16.1717 13.9353 16.3489C13.1656 16.5261 12.3576 16.4137 11.6655 16.0332C10.9734 15.6526 10.4456 15.0306 10.1829 14.2857H3.57143C2.62423 14.2857 1.71582 13.9094 1.04605 13.2397C0.376274 12.5699 0 11.6615 0 10.7143V3.57143ZM11.4286 13.2143C11.4286 13.6879 11.6167 14.1421 11.9516 14.477C12.2865 14.8119 12.7407 15 13.2143 15C13.6879 15 14.1421 14.8119 14.477 14.477C14.8119 14.1421 15 13.6879 15 13.2143C15 12.7407 14.8119 12.2865 14.477 11.9516C14.1421 11.6167 13.6879 11.4286 13.2143 11.4286C12.7407 11.4286 12.2865 11.6167 11.9516 11.9516C11.6167 12.2865 11.4286 12.7407 11.4286 13.2143ZM6.42857 15.7143C6.23913 15.7143 6.05745 15.7895 5.9235 15.9235C5.78954 16.0574 5.71429 16.2391 5.71429 16.4286C5.71429 17.3758 6.09056 18.2842 6.76033 18.954C7.43011 19.6237 8.33851 20 9.28571 20H16.4286C17.3758 20 18.2842 19.6237 18.954 18.954C19.6237 18.2842 20 17.3758 20 16.4286V9.28571C20 8.33851 19.6237 7.43011 18.954 6.76033C18.2842 6.09056 17.3758 5.71429 16.4286 5.71429H9.81714C9.55443 4.96942 9.02665 4.34735 8.33453 3.96681C7.6424 3.58626 6.8344 3.47387 6.06469 3.65108C5.29499 3.8283 4.61748 4.28271 4.16145 4.92761C3.70543 5.5725 3.50281 6.36273 3.59227 7.14749C3.68174 7.93225 4.05701 8.6566 4.64649 9.18231C5.23596 9.70801 5.99836 9.99828 6.78821 9.9977C7.57805 9.99713 8.34003 9.70576 8.92874 9.1792C9.51745 8.65264 9.89168 7.92775 9.98 7.14286H16.4286C16.9969 7.14286 17.5419 7.36862 17.9438 7.77049C18.3457 8.17235 18.5714 8.71739 18.5714 9.28571V16.4286C18.5714 16.9969 18.3457 17.5419 17.9438 17.9438C17.5419 18.3457 16.9969 18.5714 16.4286 18.5714H9.28571C8.71739 18.5714 8.17235 18.3457 7.77049 17.9438C7.36862 17.5419 7.14286 16.9969 7.14286 16.4286C7.14286 16.2391 7.0676 16.0574 6.93365 15.9235C6.79969 15.7895 6.61801 15.7143 6.42857 15.7143ZM6.78571 5C7.25932 5 7.71352 5.18814 8.0484 5.52302C8.38329 5.85791 8.57143 6.31211 8.57143 6.78571C8.57143 7.25932 8.38329 7.71352 8.0484 8.0484C7.71352 8.38329 7.25932 8.57143 6.78571 8.57143C6.31211 8.57143 5.85791 8.38329 5.52302 8.0484C5.18814 7.71352 5 7.25932 5 6.78571C5 6.31211 5.18814 5.85791 5.52302 5.52302C5.85791 5.18814 6.31211 5 6.78571 5Z" fill="#919191"/>
</svg>
