<svg width="32" height="32" viewBox="0 0 32 32" fill="none" xmlns="http://www.w3.org/2000/svg">
<path d="M16.244 4.91064H15.756C15.1678 4.91064 14.6037 5.14431 14.1877 5.56025C13.7718 5.97618 13.5381 6.54031 13.5381 7.12853V7.32814C13.5377 7.71708 13.4351 8.09907 13.2404 8.4358C13.0458 8.77253 12.766 9.05215 12.4292 9.24662L11.9523 9.52385C11.6152 9.71851 11.2327 9.821 10.8434 9.821C10.4541 9.821 10.0716 9.71851 9.73446 9.52385L9.56812 9.43514C9.05918 9.14156 8.45456 9.06192 7.88696 9.21369C7.31936 9.36547 6.83518 9.73626 6.5407 10.2447L6.29673 10.6661C6.00315 11.175 5.92351 11.7796 6.07528 12.3472C6.22706 12.9148 6.59785 13.399 7.10626 13.6935L7.2726 13.8044C7.60781 13.9979 7.88654 14.2758 8.08108 14.6104C8.27562 14.945 8.37921 15.3247 8.38155 15.7118V16.2773C8.3831 16.6681 8.28135 17.0524 8.08662 17.3913C7.89188 17.7301 7.61106 18.0115 7.2726 18.2069L7.10626 18.3067C6.59785 18.6012 6.22706 19.0854 6.07528 19.653C5.92351 20.2206 6.00315 20.8252 6.29673 21.3341L6.5407 21.7555C6.83518 22.2639 7.31936 22.6347 7.88696 22.7865C8.45456 22.9383 9.05918 22.8586 9.56812 22.565L9.73446 22.4763C10.0716 22.2817 10.4541 22.1792 10.8434 22.1792C11.2327 22.1792 11.6152 22.2817 11.9523 22.4763L12.4292 22.7536C12.766 22.948 13.0458 23.2277 13.2404 23.5644C13.4351 23.9011 13.5377 24.2831 13.5381 24.672V24.8716C13.5381 25.4599 13.7718 26.024 14.1877 26.4399C14.6037 26.8559 15.1678 27.0895 15.756 27.0895H16.244C16.8322 27.0895 17.3963 26.8559 17.8122 26.4399C18.2282 26.024 18.4619 25.4599 18.4619 24.8716V24.672C18.4623 24.2831 18.5649 23.9011 18.7596 23.5644C18.9542 23.2277 19.234 22.948 19.5708 22.7536L20.0476 22.4763C20.3848 22.2817 20.7673 22.1792 21.1566 22.1792C21.5459 22.1792 21.9284 22.2817 22.2655 22.4763L22.4319 22.565C22.9408 22.8586 23.5454 22.9383 24.113 22.7865C24.6806 22.6347 25.1648 22.2639 25.4593 21.7555L25.7033 21.323C25.9968 20.8141 26.0765 20.2095 25.9247 19.6419C25.7729 19.0743 25.4021 18.5901 24.8937 18.2956L24.7274 18.2069C24.3889 18.0115 24.1081 17.7301 23.9134 17.3913C23.7186 17.0524 23.6169 16.6681 23.6184 16.2773V15.7229C23.6169 15.332 23.7186 14.9478 23.9134 14.6089C24.1081 14.2701 24.3889 13.9887 24.7274 13.7933L24.8937 13.6935C25.4021 13.399 25.7729 12.9148 25.9247 12.3472C26.0765 11.7796 25.9968 11.175 25.7033 10.6661L25.4593 10.2447C25.1648 9.73626 24.6806 9.36547 24.113 9.21369C23.5454 9.06192 22.9408 9.14156 22.4319 9.43514L22.2655 9.52385C21.9284 9.71851 21.5459 9.821 21.1566 9.821C20.7673 9.821 20.3848 9.71851 20.0476 9.52385L19.5708 9.24662C19.234 9.05215 18.9542 8.77253 18.7596 8.4358C18.5649 8.09907 18.4623 7.71708 18.4619 7.32814V7.12853C18.4619 6.54031 18.2282 5.97618 17.8122 5.56025C17.3963 5.14431 16.8322 4.91064 16.244 4.91064V4.91064Z" stroke="#919191" stroke-width="2" stroke-linecap="round" stroke-linejoin="round"/>
<path d="M16.0002 19.327C17.8375 19.327 19.327 17.8375 19.327 16.0002C19.327 14.1628 17.8375 12.6733 16.0002 12.6733C14.1628 12.6733 12.6733 14.1628 12.6733 16.0002C12.6733 17.8375 14.1628 19.327 16.0002 19.327Z" stroke="#919191" stroke-width="2" stroke-linecap="round" stroke-linejoin="round"/>
</svg>
