<svg version="1.0" xmlns="http://www.w3.org/2000/svg"
 width="512.000000pt" height="512.000000pt" viewBox="0 0 512.000000 512.000000"
 preserveAspectRatio="xMidYMid meet">

<g transform="translate(0.000000,512.000000) scale(0.100000,-0.100000)"
fill="none" stroke="none"
>
<path d="M2479 5097 c-42 -23 -48 -33 -149 -233 -136 -269 -191 -359 -499
-819 -140 -209 -324 -483 -409 -610 -548 -821 -726 -1278 -684 -1753 42 -462
236 -867 565 -1179 553 -523 1356 -649 2045 -322 483 228 852 678 984 1199 32
126 58 324 58 437 0 258 -86 557 -257 895 -135 268 -240 434 -824 1303 -345
514 -458 701 -558 925 -24 52 -55 108 -69 124 -55 59 -130 71 -203 33z m121
-545 c121 -234 300 -525 640 -1042 379 -575 481 -745 601 -995 88 -185 135
-305 171 -445 27 -101 31 -132 31 -255 0 -234 -51 -450 -157 -658 -210 -414
-587 -697 -1049 -789 -145 -29 -393 -31 -537 -4 -304 55 -569 195 -791 416
-283 282 -433 639 -432 1030 0 129 3 158 31 262 39 150 104 313 203 508 109
217 240 431 538 884 348 528 521 809 657 1064 27 50 51 92 54 92 3 0 21 -30
40 -68z" fill="#919191"/>
<path d="M3600 2169 c-73 -29 -100 -84 -111 -223 -10 -137 -37 -234 -94 -351
-128 -261 -372 -445 -663 -501 -41 -8 -100 -14 -131 -14 -137 0 -218 -73 -209
-187 5 -57 25 -92 72 -127 60 -45 307 -28 497 34 502 164 861 644 870 1163 2
99 -8 133 -53 174 -44 41 -120 55 -178 32z" fill="#919191"/>
</g>
</svg>