<svg width="25" height="22" viewBox="0 0 25 22" fill="none" xmlns="http://www.w3.org/2000/svg">
<path d="M12.9983 12.7112C12.8866 12.7106 12.7765 12.685 12.676 12.6363L1.43264 7.32193C1.30387 7.2614 1.19499 7.16547 1.11872 7.04534C1.04245 6.92522 1.00195 6.78587 1.00195 6.64358C1.00195 6.50129 1.04245 6.36195 1.11872 6.24182C1.19499 6.1217 1.30387 6.02577 1.43264 5.96524L12.676 0.650897C12.7756 0.604097 12.8844 0.579834 12.9945 0.579834C13.1046 0.579834 13.2134 0.604097 13.3131 0.650897L24.5564 5.96524C24.6852 6.02577 24.794 6.1217 24.8703 6.24182C24.9466 6.36195 24.9871 6.50129 24.9871 6.64358C24.9871 6.78587 24.9466 6.92522 24.8703 7.04534C24.794 7.16547 24.6852 7.2614 24.5564 7.32193L13.3131 12.6363C13.2148 12.6839 13.1074 12.7095 12.9983 12.7112ZM3.5089 6.64733L12.9983 11.1447L22.4876 6.64733L12.9983 2.165L3.5089 6.64733Z" fill="#919191"/>
<path d="M12.9981 17.141C12.8864 17.1404 12.7763 17.1147 12.6758 17.0661L1.43246 11.7742C1.34151 11.7336 1.25959 11.6752 1.19146 11.6025C1.12334 11.5298 1.07038 11.4443 1.03569 11.3509C1.001 11.2576 0.985271 11.1582 0.98942 11.0587C0.99357 10.9592 1.01752 10.8615 1.05986 10.7713C1.1022 10.6811 1.16209 10.6003 1.23603 10.5335C1.30997 10.4668 1.39647 10.4154 1.49048 10.3825C1.58449 10.3496 1.68412 10.3357 1.78355 10.3417C1.88298 10.3477 1.98022 10.3735 2.06958 10.4175L12.9981 15.567L23.9191 10.4025C24.0092 10.3602 24.1067 10.336 24.2061 10.3314C24.3055 10.3268 24.4048 10.3417 24.4984 10.3755C24.5921 10.4093 24.6781 10.4611 24.7517 10.5281C24.8253 10.5951 24.8849 10.676 24.9272 10.7661C24.9696 10.8561 24.9937 10.9536 24.9984 11.0531C25.003 11.1525 24.988 11.2518 24.9543 11.3454C24.9205 11.439 24.8686 11.5251 24.8016 11.5987C24.7346 11.6722 24.6538 11.7319 24.5637 11.7742L13.3204 17.0886C13.2181 17.1295 13.1081 17.1474 12.9981 17.141Z" fill="#919191"/>
<path d="M12.9981 21.571C12.8864 21.5703 12.7763 21.5447 12.6758 21.496L1.43246 16.1817C1.25631 16.0949 1.12125 15.9425 1.05632 15.7572C0.991393 15.5718 1.00178 15.3684 1.08525 15.1907C1.16872 15.013 1.31861 14.8751 1.50268 14.8067C1.68675 14.7383 1.89031 14.7449 2.06958 14.825L12.9981 20.0194L23.9191 14.855C24.0084 14.811 24.1057 14.7852 24.2051 14.7792C24.3046 14.7732 24.4042 14.7871 24.4982 14.82C24.5922 14.8529 24.6787 14.9043 24.7526 14.971C24.8266 15.0378 24.8865 15.1186 24.9288 15.2088C24.9712 15.2989 24.9951 15.3966 24.9993 15.4962C25.0034 15.5957 24.9877 15.695 24.953 15.7884C24.9183 15.8818 24.8653 15.9673 24.7972 16.04C24.7291 16.1127 24.6472 16.171 24.5562 16.2117L13.3204 21.5185C13.2181 21.5595 13.1081 21.5774 12.9981 21.571Z" fill="#919191"/>
</svg>
