<svg width="8" height="6" viewBox="0 0 8 6" fill="none" xmlns="http://www.w3.org/2000/svg">
<path d="M1 2.65C0.8067 2.65 0.65 2.8067 0.65 3C0.65 3.1933 0.8067 3.35 1 3.35V2.65ZM7.24749 3.24749C7.38417 3.1108 7.38417 2.8892 7.24749 2.75251L5.0201 0.525126C4.88342 0.388443 4.66181 0.388443 4.52513 0.525126C4.38844 0.66181 4.38844 0.883418 4.52513 1.0201L6.50503 3L4.52513 4.9799C4.38844 5.11658 4.38844 5.33819 4.52513 5.47487C4.66181 5.61156 4.88342 5.61156 5.0201 5.47487L7.24749 3.24749ZM1 3.35H7V2.65H1V3.35Z" fill="#919191"/>
</svg>
