<svg width="27" height="27" viewBox="0 0 27 27" fill="none" xmlns="http://www.w3.org/2000/svg">
<path fill-rule="evenodd" clip-rule="evenodd" d="M0.0716709 1.70088L0.456282 1.03529L1.07453 0.591287L1.62243 0.341553L25.3155 0.404325L25.9613 0.761474L26.6483 1.35212L26.7502 25.0804L26.32 25.5475L25.46 25.9459L1.42803 26.0466L0.595625 25.6442L-0.000976562 24.9229L0.0716709 1.70088ZM1.3501 21.0281L25.4364 21.0118L25.5047 1.74972L1.43641 1.67613L1.3501 21.0281ZM6.39727 24.474L9.59686 24.5024L9.61175 24.0468L6.94544 24.0224L6.97195 23.5262L9.59023 23.537L9.61147 23.1936L6.99008 23.1719C6.99008 23.1719 6.98372 22.6248 6.99062 22.5591C6.99752 22.4933 9.61432 22.6248 9.61432 22.6248L9.60755 22.2812L6.42405 22.2939L6.39727 24.474ZM21.4138 24.3387L24.6134 24.3671L24.6282 23.9115L21.9619 23.8872L21.9885 23.3909L24.6067 23.4018L24.628 23.0583L22.0066 23.0366C22.0066 23.0366 22.0002 22.4895 22.0071 22.4238C22.014 22.358 24.6308 22.4895 24.6308 22.4895L24.624 22.1459L21.4406 22.1586L21.4138 24.3387ZM10.6346 22.305L10.618 24.4244L14.8261 24.444L14.8291 22.3138L14.0371 22.303L14.06 23.9058L13.0047 23.9254L12.9833 22.3183L12.2663 22.2938L12.282 23.9456L11.2534 23.9138L11.2246 22.2985L10.6348 22.305H10.6346ZM15.8597 22.2928L15.8094 24.4824L16.3987 24.4731C16.3987 24.4731 16.3784 22.3302 16.3612 22.2959C16.344 22.2616 15.8597 22.293 15.8597 22.293V22.2928ZM2.24649 22.3126L2.22796 24.4843L2.83592 24.4702L2.83471 23.6173L4.16563 23.6344L4.68593 24.364L5.53145 24.3705L4.85625 23.6453L5.43121 23.2483L5.40429 22.2298L2.24649 22.3126ZM17.3983 22.3126L17.3797 24.4843L17.9877 24.4702L17.9865 23.6173L19.3174 23.6344L19.8377 24.364L20.6832 24.3705L20.008 23.6453L20.583 23.2483L20.5561 22.2298L17.3983 22.3126Z" fill="#8A8A8A"/>
<path fill-rule="evenodd" clip-rule="evenodd" d="M2.86861 15.5916L5.86393 15.549L7.86992 15.1603L9.76606 14.3973L10.5485 13.9396L11.4746 14.5541L12.6012 15.1036L11.0591 16.038L9.56124 16.7937L8.24357 17.2608L6.68767 17.4931L2.87172 17.5635L2.86861 15.5916ZM2.81706 12.3299L4.50473 12.3427L5.49406 12.1071L6.48326 11.677L7.72652 12.2923L9.00441 12.9105L7.46271 13.7759L5.85365 14.1469L4.50811 14.3391L2.74658 14.3662L2.81706 12.3299Z" fill="#8A8A8A"/>
<path fill-rule="evenodd" clip-rule="evenodd" d="M2.84863 10.1972L4.8135 10.3065L6.65471 10.9386L8.49579 11.7768L10.103 12.5441L11.7517 13.6709L13.3318 14.715L14.788 15.6756L16.7175 16.5301L18.6686 17.3409L19.699 17.5195L24.028 17.5185L24.0334 15.4656L20.557 15.5752L18.4355 14.9511L16.1754 13.9665L14.4009 12.7189L12.5034 11.4573L10.5585 10.3966L8.70155 9.37038L6.70815 8.46912L5.13804 8.10791L2.87812 8.13321L2.84863 10.1972Z" fill="#8A8A8A"/>
<path fill-rule="evenodd" clip-rule="evenodd" d="M2.88037 6.99815L5.79019 7.00505L7.38397 7.32107L9.07394 8.02184L10.6266 8.81867L12.6051 10.0004L14.1989 11.127L16.2736 12.4048L18.101 13.3254L19.9834 14.0673L21.3849 14.3282L24.1934 14.3412L24.1922 12.3029L21.7935 12.3991L19.5611 11.6364L17.4257 10.4157L15.0136 9.02863L12.7959 7.57229L10.7161 6.36543L8.75209 5.45727L7.43592 5.0966L6.81862 4.97119L2.89336 5.05764L2.88037 6.99815Z" fill="#8A8A8A"/>
<path fill-rule="evenodd" clip-rule="evenodd" d="M24.1994 10.092L24.2309 7.90748L21.7629 7.93346L20.6119 8.15329L19.1 8.60677L17.921 9.18389L17.4771 9.43119L18.712 10.047L19.9485 10.7203L21.3086 10.3318L22.3529 10.1376L24.1994 10.092ZM24.0426 6.92614L24.1078 4.78162L21.4172 4.79474L19.49 4.80759L17.7145 5.28852L15.8426 6.15407L14.4005 7.21118L14.411 7.48283L15.3178 8.01869L16.307 8.70566L17.6261 7.95673L19.1236 7.44346L21.0198 7.02625L24.0426 6.92614ZM2.95276 22.7669L2.93896 23.2479L4.55466 23.2603L4.62338 22.761L2.95276 22.7669ZM18.1046 22.7669L18.0908 23.2479L19.7065 23.2603L19.7752 22.761L18.1046 22.7669Z" fill="#8A8A8A"/>
</svg>
