<svg width="12" height="12" viewBox="0 0 12 12" fill="none" xmlns="http://www.w3.org/2000/svg">
<path d="M6 11C8.76142 11 11 8.76142 11 6C11 3.23858 8.76142 1 6 1C3.23858 1 1 3.23858 1 6C1 8.76142 3.23858 11 6 11Z" stroke="#AEAEAE"/>
<path d="M5.82941 7.16393C6.10653 7.16393 6.31999 6.92518 6.45559 6.68351C6.53398 6.5438 6.64836 6.41996 6.7957 6.31967L7.14839 6.08197C7.65591 5.7377 8 5.27869 8 4.63115C8 3.80328 7.30323 3 5.96989 3C4.69677 3 4 3.85246 4 4.7377C4 4.95802 4.1939 5.10656 4.41421 5.10656H4.89315C5.00265 5.10656 5.09247 4.99475 5.09247 4.88525C5.09247 4.42623 5.35914 3.95902 5.96989 3.95902C6.54624 3.95902 6.83011 4.31967 6.83011 4.69672C6.83011 4.94262 6.71828 5.16393 6.46022 5.34426L6.04731 5.63934C5.55699 5.9918 5.36774 6.39344 5.36774 6.82787C5.36774 7.02281 5.54544 7.16393 5.74038 7.16393H5.82941ZM5.2043 8.35246C5.2043 8.71311 5.50538 9 5.88387 9C6.26237 9 6.57204 8.71311 6.57204 8.35246C6.57204 7.9918 6.26237 7.69672 5.88387 7.69672C5.50538 7.69672 5.2043 7.9918 5.2043 8.35246Z" fill="#AEAEAE"/>
</svg>
