<svg width="12" height="10" viewBox="0 0 12 10" fill="none" xmlns="http://www.w3.org/2000/svg">
<path d="M3.07889 0.829366C2.88432 1.02394 2.77501 1.28783 2.77501 1.56299V1.77549H2.56251C2.12158 1.77549 1.69872 1.95065 1.38694 2.26243C1.07516 2.57421 0.9 2.99708 0.9 3.438V6.56302C0.9 6.83818 1.00931 7.10208 1.20388 7.29665C1.39845 7.49122 1.66234 7.60052 1.9375 7.60052H2.77501V8.43803C2.77501 8.71319 2.88432 8.97709 3.07889 9.17165C3.27346 9.36622 3.53735 9.47553 3.81251 9.47553H8.18754C8.4627 9.47553 8.72659 9.36622 8.92116 9.17166C9.11573 8.97709 9.22504 8.71319 9.22504 8.43803V7.60052H10.0625C10.3377 7.60052 10.6016 7.49122 10.7962 7.29665C10.9907 7.10208 11.1 6.83818 11.1 6.56302V3.438C11.1 2.99708 10.9249 2.57421 10.6131 2.26243C10.3013 1.95065 9.87847 1.77549 9.43754 1.77549H9.22504V1.56299C9.22504 1.28783 9.11573 1.02394 8.92116 0.829366C8.72659 0.634797 8.4627 0.525488 8.18754 0.525488H3.81251C3.53735 0.525488 3.27346 0.634797 3.07889 0.829366ZM8.40004 1.56299V1.77549H3.60001V1.56299C3.60001 1.50663 3.6224 1.45258 3.66225 1.41273C3.7021 1.37288 3.75616 1.35049 3.81251 1.35049H8.18754C8.24389 1.35049 8.29795 1.37288 8.3378 1.41273C8.37765 1.45258 8.40004 1.50663 8.40004 1.56299ZM2.77501 5.93802V6.77552H1.9375C1.88115 6.77552 1.8271 6.75313 1.78724 6.71328C1.74739 6.67343 1.725 6.61938 1.725 6.56302V3.438C1.725 3.21588 1.81324 3.00286 1.9703 2.8458C2.12737 2.68873 2.34039 2.6005 2.56251 2.6005H9.43754C9.65966 2.6005 9.87268 2.68873 10.0297 2.8458C10.1868 3.00286 10.275 3.21588 10.275 3.438V6.56302C10.275 6.61938 10.2527 6.67343 10.2128 6.71328C10.173 6.75313 10.1189 6.77552 10.0625 6.77552H9.22504V5.93802C9.22504 5.66285 9.11573 5.39896 8.92116 5.20439C8.72659 5.00982 8.4627 4.90051 8.18754 4.90051H3.81251C3.53735 4.90051 3.27346 5.00982 3.07889 5.20439C2.88432 5.39896 2.77501 5.66285 2.77501 5.93802ZM3.66225 5.78775C3.7021 5.7479 3.75616 5.72551 3.81251 5.72551H8.18754C8.24389 5.72551 8.29795 5.7479 8.3378 5.78775C8.37765 5.82761 8.40004 5.88166 8.40004 5.93802V8.43803C8.40004 8.49439 8.37765 8.54844 8.3378 8.58829C8.29795 8.62814 8.2439 8.65053 8.18754 8.65053H3.81251C3.75615 8.65053 3.7021 8.62814 3.66225 8.58829C3.6224 8.54844 3.60001 8.49439 3.60001 8.43803V5.93802C3.60001 5.88166 3.6224 5.82761 3.66225 5.78775Z" fill="#EB612C" stroke="#EB612C" stroke-width="0.2"/>
</svg>
