<svg width="6" height="6" viewBox="0 0 6 6" fill="none" xmlns="http://www.w3.org/2000/svg">
<path d="M1 2.65C0.8067 2.65 0.65 2.8067 0.65 3C0.65 3.1933 0.8067 3.35 1 3.35V2.65ZM5.24749 3.24749C5.38417 3.1108 5.38417 2.8892 5.24749 2.75251L3.0201 0.525126C2.88342 0.388443 2.66181 0.388443 2.52513 0.525126C2.38844 0.66181 2.38844 0.883418 2.52513 1.0201L4.50503 3L2.52513 4.9799C2.38844 5.11658 2.38844 5.33819 2.52513 5.47487C2.66181 5.61156 2.88342 5.61156 3.0201 5.47487L5.24749 3.24749ZM1 3.35H5V2.65H1V3.35Z" fill="#2E314E"/>
</svg>
