<svg width="16" height="20" viewBox="0 0 16 20" fill="none" xmlns="http://www.w3.org/2000/svg">
<path d="M6.19995 19H9.79995H6.19995ZM1.69995 7.3C1.69995 5.62913 2.3637 4.02671 3.54518 2.84523C4.72666 1.66375 6.32909 1 7.99995 1C9.67081 1 11.2732 1.66375 12.4547 2.84523C13.6362 4.02671 14.2999 5.62913 14.2999 7.3C14.3005 8.31436 14.0552 9.31375 13.585 10.2125C13.1147 11.1113 12.4336 11.8827 11.5999 12.4606L11.1121 14.77C11.0476 15.1957 10.8325 15.5841 10.5061 15.8648C10.1796 16.1455 9.76339 16.2999 9.33285 16.3H6.66705C6.23651 16.2999 5.82025 16.1455 5.4938 15.8648C5.16735 15.5841 4.95233 15.1957 4.88775 14.77L4.39995 12.4705C3.56602 11.8906 2.88487 11.1174 2.41469 10.217C1.94451 9.31659 1.69928 8.31576 1.69995 7.3V7.3Z" stroke="#EB612C" stroke-width="1.8" stroke-linecap="round" stroke-linejoin="round"/>
<path d="M4.3999 12.7002H11.5999" stroke="#EB612C" stroke-width="1.8" stroke-linecap="round" stroke-linejoin="round"/>
</svg>
